<?xml version="1.0" encoding="UTF-8"?>
<!-- Created with Inkscape (http://www.inkscape.org/) -->
<svg width="76.768mm" height="22.596mm" version="1.1" viewBox="0 0 76.768 22.596" xmlns="http://www.w3.org/2000/svg">
 <defs>
  <clipPath id="clip14">
   <path d="m0 0h217.61v65h-217.61z"/>
  </clipPath>
 </defs>
 <g transform="translate(-58.836 -112.21)">
  <path d="m132.72 134.52h-70.991c-1.4387 0-2.6045-1.1658-2.6045-2.6045v-16.818c0-1.4387 1.1658-2.6045 2.6045-2.6045h70.991c1.4387 0 2.6045 1.1658 2.6045 2.6045v16.818c0 1.4387-1.1658 2.6045-2.6045 2.6045"/>
  <g transform="matrix(.35278 0 0 .35278 58.836 112.21)" clip-path="url(#clip14)">
   <path d="m8.1875 1.6133c-3.625 0-6.5742 2.9492-6.5742 6.5742v47.672c0 3.625 2.9492 6.5742 6.5742 6.5742h201.24c3.625 0 6.5742-2.9492 6.5742-6.5742v-47.672c0-3.625-2.9492-6.5742-6.5742-6.5742zm201.24 62.438h-201.24c-4.5156 0-8.1875-3.6758-8.1875-8.1914v-47.672c0-4.5156 3.6719-8.1914 8.1875-8.1914h201.24c4.5156 0 8.1875 3.6758 8.1875 8.1914v47.672c0 4.5156-3.6719 8.1914-8.1875 8.1914" fill="#a6a8ab"/>
  </g>
  <g fill="#fff">
   <path d="m85.457 118.12-0.29214-0.91502c-0.0717-0.22599-0.1323-0.47817-0.18742-0.69315h-0.011c-0.0537 0.21498-0.11024 0.47267-0.17501 0.69315l-0.28663 0.91502zm-1.0625 0.51125-0.3197 1.0528h-0.70005l1.1906-3.7124h0.86403l1.2058 3.7124h-0.72622l-0.33624-1.0528"/>
   <path d="m87.648 117 0.43546 1.3588c0.0772 0.23702 0.13091 0.452 0.18052 0.67248h0.0165c0.0496-0.22048 0.11024-0.42995 0.1819-0.67248l0.42995-1.3588h0.70969l-1.0239 2.6817h-0.6656l-0.9977-2.6817"/>
   <path d="m91.646 118.37c-0.47956-6e-3 -0.93707 0.0937-0.93707 0.50161 0 0.26458 0.17088 0.38585 0.38585 0.38585 0.27423 0 0.46854-0.17639 0.53331-0.36931 0.0179-0.0496 0.0179-0.0992 0.0179-0.14883zm0.66008 0.66697c0 0.24254 0.011 0.47956 0.0441 0.64355h-0.61185l-0.0482-0.29628h-0.0179c-0.15847 0.20808-0.43959 0.35691-0.79237 0.35691-0.54019 0-0.84198-0.38998-0.84198-0.79788 0-0.67249 0.59945-1.0184 1.5903-1.0129v-0.0441c0-0.17639-0.0703-0.46853-0.54433-0.46853-0.26458 0-0.54019 0.0827-0.72209 0.19844l-0.13229-0.44098c0.19843-0.12126 0.5457-0.23564 0.97014-0.23564 0.85851 0 1.1066 0.54432 1.1066 1.1341"/>
   <path d="m93.264 117h0.67661v2.6817h-0.67661zm0.33486-0.38585c-0.22462 0-0.37345-0.16536-0.37345-0.3638 0-0.20946 0.15296-0.36931 0.38034-0.36931 0.23013 0 0.37345 0.15985 0.37896 0.36931 0 0.19844-0.14883 0.3638-0.37896 0.3638"/>
   <path d="m94.915 119.69h0.67799v-3.9164h-0.67799z"/>
   <path d="m97.993 118.37c-0.47955-6e-3 -0.93706 0.0937-0.93706 0.50161 0 0.26458 0.17087 0.38585 0.38585 0.38585 0.2756 0 0.46853-0.17639 0.53468-0.36931 0.0165-0.0496 0.0165-0.0992 0.0165-0.14883zm0.66008 0.66697c0 0.24254 0.011 0.47956 0.0441 0.64355h-0.61047l-0.0496-0.29628h-0.0165c-0.15985 0.20808-0.44097 0.35691-0.79375 0.35691-0.53881 0-0.84198-0.38998-0.84198-0.79788 0-0.67249 0.60083-1.0184 1.5916-1.0129v-0.0441c0-0.17639-0.0717-0.46853-0.54571-0.46853-0.26458 0-0.54019 0.0827-0.72071 0.19844l-0.13229-0.44098c0.19844-0.12126 0.54432-0.23564 0.96876-0.23564 0.85852 0 1.1066 0.54432 1.1066 1.1341"/>
   <path d="m100.29 118.58c0 0.0551 6e-3 0.11025 0.0165 0.15985 0.0717 0.27561 0.30868 0.47405 0.59945 0.47405 0.42444 0 0.68351-0.33624 0.68351-0.88057 0-0.47404-0.226-0.85989-0.678-0.85989-0.27561 0-0.52779 0.19844-0.59944 0.49609-0.011 0.0496-0.0221 0.11024-0.0221 0.17639zm-0.678-2.8084h0.678v1.6027h0.011c0.16537-0.25907 0.45613-0.42857 0.85852-0.42857 0.65595 0 1.1231 0.54432 1.1176 1.3601 0 0.96325-0.61047 1.4428-1.2168 1.4428-0.34726 0-0.65457-0.13229-0.84749-0.46302h-0.011l-0.0331 0.40239h-0.57878c0.011-0.18191 0.0221-0.47956 0.0221-0.74966"/>
   <path d="m103.07 119.69h0.67662v-3.9164h-0.67662z"/>
   <path d="m106.39 118.06c6e-3 -0.24805-0.10473-0.65595-0.55535-0.65595-0.41892 0-0.59531 0.38034-0.62287 0.65595zm-1.1782 0.47267c0.0165 0.48506 0.39687 0.69453 0.82682 0.69453 0.31282 0 0.5333-0.0496 0.74276-0.12127l0.0992 0.46164c-0.23151 0.1006-0.55121 0.17088-0.93568 0.17088-0.87092 0-1.3836-0.5333-1.3836-1.3532 0-0.74415 0.452-1.4428 1.3119-1.4428 0.86954 0 1.1562 0.7152 1.1562 1.305 0 0.12678-0.011 0.226-0.0221 0.28526"/>
   <path d="m110.39 119.26c0.38448 0 0.65457-0.37483 0.65457-0.91915 0-0.41893-0.18741-0.904-0.64906-0.904-0.47955 0-0.67248 0.46854-0.67248 0.91502 0 0.51676 0.25907 0.90813 0.66008 0.90813zm-0.0221 0.49058c-0.75516 0-1.3436-0.51814-1.3436-1.3822 0-0.88195 0.57739-1.4208 1.3877-1.4208 0.79788 0 1.3326 0.56086 1.3326 1.3767 0 0.9853-0.69453 1.4263-1.3711 1.4263"/>
   <path d="m112.54 117.8c0-0.30868-0.01-0.56775-0.0207-0.79927h0.58842l0.0331 0.40239h0.0165c0.12127-0.20946 0.41341-0.46164 0.8599-0.46164 0.46715 0 0.95222 0.30179 0.95222 1.1507v1.5903h-0.678v-1.5131c0-0.38585-0.14331-0.67799-0.51124-0.67799-0.2701 0-0.45751 0.19292-0.52917 0.39687-0.0221 0.0551-0.0331 0.13781-0.0331 0.21498v1.5792h-0.67799"/>
   <path d="m118.09 116.32v0.68764h0.64354v0.50712h-0.64354v1.1782c0 0.33072 0.0882 0.49609 0.34588 0.49609 0.12127 0 0.18742-6e-3 0.26459-0.0276l0.011 0.51125c-0.0992 0.04-0.28111 0.0717-0.49058 0.0717-0.25218 0-0.45613-0.0827-0.5829-0.21911-0.14883-0.15434-0.21498-0.40239-0.21498-0.75517v-1.2554h-0.38034v-0.50712h0.38034v-0.50022"/>
   <path d="m119.49 115.77h0.67799v1.5972h0.011c0.0827-0.12678 0.19844-0.23151 0.33624-0.30317 0.13781-0.0758 0.29628-0.11989 0.46716-0.11989 0.45751 0 0.93569 0.30179 0.93569 1.1617v1.5806h-0.67662v-1.509c0-0.38585-0.14332-0.6835-0.51814-0.6835-0.26321 0-0.45062 0.17639-0.52779 0.38033-0.0221 0.0606-0.0276 0.1323-0.0276 0.20395v1.6082h-0.67799"/>
   <path d="m124.54 118.06c6e-3 -0.24805-0.10473-0.65595-0.55673-0.65595-0.41892 0-0.59393 0.38034-0.62149 0.65595zm-1.1782 0.47267c0.0165 0.48506 0.39549 0.69453 0.82544 0.69453 0.3142 0 0.53468-0.0496 0.74276-0.12127l0.1006 0.46164c-0.23151 0.1006-0.55121 0.17088-0.93706 0.17088-0.86955 0-1.3822-0.5333-1.3822-1.3532 0-0.74415 0.452-1.4428 1.3105-1.4428 0.86954 0 1.1562 0.7152 1.1562 1.305 0 0.12678-0.011 0.226-0.0221 0.28526"/>
   <path d="m75.969 123.29c-0.0179-1.8369 1.5034-2.7313 1.5737-2.7726-0.86128-1.2568-2.1966-1.4276-2.6665-1.4414-1.1203-0.11713-2.2076 0.67248-2.7781 0.67248-0.58291 0-1.4635-0.66008-2.4102-0.64078-1.2209 0.0193-2.362 0.72622-2.9876 1.8218-1.2898 2.2366-0.32797 5.5218 0.9095 7.3298 0.62012 0.8847 1.3422 1.8741 2.2889 1.8383 0.92604-0.0386 1.2719-0.5898 2.3895-0.5898 1.1079 0 1.4332 0.5898 2.3992 0.56775 0.99357-0.0165 1.6192-0.88883 2.2159-1.7832 0.71658-1.0142 1.0032-2.0133 1.0142-2.0643-0.0234-8e-3 -1.9292-0.73587-1.9485-2.938"/>
   <path d="m74.145 117.88c0.49748-0.62287 0.84061-1.4717 0.74415-2.3316-0.72072 0.0331-1.622 0.49885-2.1415 1.1079-0.45888 0.53744-0.87092 1.418-0.76343 2.2448 0.81029 0.0606 1.6412-0.4079 2.1608-1.0211"/>
   <path d="m87.145 126.79-0.63941-1.9747c-0.0675-0.20119-0.19431-0.67662-0.38172-1.4235h-0.0221c-0.0744 0.32108-0.19568 0.7965-0.35967 1.4235l-0.62838 1.9747zm2.2104 3.1543h-1.2912l-0.70694-2.2214h-2.4557l-0.67386 2.2214h-1.2568l2.4364-7.5627h1.5021"/>
   <path d="m94.383 127.2c0-0.53192-0.11988-0.96876-0.35966-1.3133-0.26183-0.35829-0.61323-0.53881-1.0542-0.53881-0.29904 0-0.57189 0.10059-0.81305 0.29765-0.24253 0.19982-0.40238 0.45889-0.47818 0.78135-0.0372 0.14883-0.0551 0.27148-0.0551 0.36794v0.9095c0 0.39688 0.12127 0.73174 0.36381 1.0046 0.24391 0.27423 0.55948 0.40928 0.94809 0.40928 0.4575 0 0.81304-0.17501 1.0652-0.52779 0.25631-0.3514 0.38309-0.81442 0.38309-1.3904m1.2347-0.0455c0 0.92742-0.25081 1.6619-0.75241 2.1993-0.44924 0.47956-1.0074 0.71796-1.6716 0.71796-0.71934 0-1.2347-0.25907-1.5489-0.77445h-0.0221v2.8732h-1.2127v-5.8801c0-0.58291-0.0138-1.181-0.0441-1.7956h1.0652l0.0675 0.86541h0.0234c0.40376-0.65181 1.017-0.97703 1.8397-0.97703 0.64216 0 1.181 0.25494 1.6096 0.76343 0.42994 0.50988 0.6463 1.1782 0.6463 2.0078"/>
   <path d="m100.65 127.2c0-0.53192-0.11988-0.96876-0.35966-1.3133-0.26183-0.35829-0.61322-0.53881-1.0542-0.53881-0.29904 0-0.57051 0.10059-0.81305 0.29765-0.24391 0.19982-0.401 0.45889-0.47542 0.78135-0.0386 0.14883-0.0565 0.27148-0.0565 0.36794v0.9095c0 0.39688 0.11989 0.73174 0.36243 1.0046 0.24391 0.27423 0.55948 0.40928 0.94947 0.40928 0.45613 0 0.81166-0.17501 1.0652-0.52779 0.25356-0.3514 0.38171-0.81442 0.38171-1.3904m1.2334-0.0455c0 0.92742-0.24942 1.6619-0.75103 2.1993-0.44924 0.47956-1.006 0.71796-1.6716 0.71796-0.71796 0-1.2333-0.25907-1.5489-0.77445h-0.0207v2.8732h-1.2127v-5.8801c0-0.58291-0.0152-1.181-0.0441-1.7956h1.0652l0.0675 0.86541h0.0234c0.40239-0.65181 1.0156-0.97703 1.8383-0.97703 0.64354 0 1.1796 0.25494 1.6109 0.76343 0.42995 0.50988 0.64355 1.1782 0.64355 2.0078"/>
   <path d="m108.9 127.83c0 0.64216-0.22324 1.1658-0.67248 1.571-0.49334 0.44097-1.1782 0.66146-2.0588 0.66146-0.81442 0-1.4676-0.1571-1.9623-0.47129l0.28112-1.0087c0.53329 0.32108 1.1162 0.48093 1.7529 0.48093 0.45613 0 0.81167-0.10197 1.0666-0.3073 0.25356-0.20671 0.38034-0.48232 0.38034-0.82682 0-0.30593-0.10335-0.56638-0.31281-0.77584-0.20947-0.20946-0.55811-0.40377-1.0446-0.58429-1.3243-0.49471-1.9858-1.2182-1.9858-2.169 0-0.6215 0.23151-1.1314 0.69591-1.5282 0.46302-0.39688 1.0804-0.5967 1.8507-0.5967 0.68901 0 1.2609 0.12127 1.717 0.35967l-0.30317 0.98806c-0.42581-0.23151-0.90813-0.34865-1.4469-0.34865-0.42719 0-0.7593 0.10473-0.9977 0.3142-0.20119 0.18741-0.30317 0.41616-0.30317 0.68488 0 0.29903 0.11438 0.5457 0.34727 0.74001 0.20119 0.17914 0.56775 0.37344 1.0997 0.58428 0.65044 0.26183 1.1286 0.56776 1.4359 0.91916 0.30592 0.3514 0.46026 0.78961 0.46026 1.3133"/>
   <path d="m112.91 125.4h-1.3353v2.6472c0 0.67386 0.23565 1.0101 0.70832 1.0101 0.21497 0 0.39549-0.0179 0.53743-0.0551l0.0331 0.91915c-0.23702 0.0909-0.55259 0.13505-0.94119 0.13505-0.47818 0-0.85301-0.14607-1.1231-0.43684-0.26871-0.29214-0.40376-0.78273-0.40376-1.4704v-2.7492h-0.79651v-0.90951h0.79651v-0.9977l1.1892-0.35967v1.3574h1.3353"/>
   <path d="m117.68 127.21c0-0.50299-0.10886-0.93293-0.32659-1.294-0.25218-0.43546-0.61598-0.65319-1.0873-0.65319-0.48645 0-0.85715 0.21773-1.1107 0.65319-0.21774 0.36105-0.32384 0.79926-0.32384 1.3174 0 0.50299 0.1061 0.93294 0.32384 1.2926 0.26182 0.43546 0.62838 0.65319 1.101 0.65319 0.46164 0 0.82544-0.22048 1.0873-0.66421 0.22462-0.36656 0.33624-0.80202 0.33624-1.305m1.2568-0.0386c0 0.83785-0.2384 1.5255-0.71795 2.0643-0.50161 0.55397-1.1672 0.82958-1.9968 0.82958-0.80202 0-1.4387-0.26596-1.9141-0.7965-0.47404-0.53055-0.71107-1.2003-0.71107-2.0078 0-0.84612 0.24392-1.5379 0.7345-2.0753 0.4892-0.54019 1.1493-0.80891 1.9789-0.80891 0.80064 0 1.4456 0.26596 1.9306 0.79651 0.46439 0.51814 0.6959 1.1824 0.6959 1.9982"/>
   <path d="m122.87 125.56c-0.11988-0.022-0.24666-0.0331-0.38171-0.0331-0.42581 0-0.75654 0.16123-0.98805 0.48231-0.2012 0.28526-0.3018 0.64355-0.3018 1.0762v2.8622h-1.2113l0.01-3.7359c0-0.62977-0.0152-1.2016-0.0441-1.7184h1.0556l0.0441 1.0446h0.0317c0.12816-0.35829 0.33073-0.64768 0.60634-0.86403 0.27009-0.19431 0.56224-0.29215 0.87643-0.29215 0.11162 0 0.2136 8e-3 0.30317 0.0221"/>
   <path d="m127.13 126.65c8e-3 -0.35829-0.0703-0.66972-0.23427-0.93155-0.20946-0.33624-0.5333-0.50574-0.966-0.50574-0.3955 0-0.71796 0.16536-0.96463 0.49472-0.20119 0.26182-0.32246 0.57602-0.35691 0.94257zm1.1548 0.3142c0 0.21773-0.0138 0.39963-0.0427 0.54983h-3.6339c0.0124 0.53882 0.18879 0.95085 0.52641 1.2347 0.30592 0.25493 0.7028 0.38033 1.1892 0.38033 0.53743 0 1.028-0.0854 1.4704-0.25769l0.19017 0.84198c-0.51676 0.22324-1.1259 0.33762-1.83 0.33762-0.84474 0-1.509-0.24942-1.9913-0.74827-0.48093-0.4961-0.72347-1.1644-0.72347-2.0023 0-0.82269 0.22324-1.5076 0.67386-2.0533 0.46992-0.58429 1.1066-0.87505 1.9058-0.87505 0.78548 0 1.3822 0.29076 1.7859 0.87505 0.32108 0.46302 0.47955 1.0363 0.47955 1.717"/>
  </g>
 </g>
</svg>
